<svg xmlns="http://www.w3.org/2000/svg" viewBox="0 0 214.94 227.99"><defs><style>.cls-1{fill:#f15a29;}</style></defs><title>Artboard 1 copy 27Social Network</title><g id="Layer_1" data-name="Layer 1"><path id="_Path_" data-name="&lt;Path&gt;" class="cls-1" d="M174.3,57.22a7.15,7.15,0,0,0-6-6c-.27-.05-.53-.15-.8-.22h-120c-.27.07-.53.17-.8.22a7.14,7.14,0,0,0-6,6c0,.27-.15.53-.22.8V178c.07.26.17.52.22.79a7.16,7.16,0,0,0,6,6,6,6,0,0,1,.68.22h64.59c0-.28,0-.56,0-.84V133.15H95.16c-.74,0-.75,0-.75-.72,0-6.3,0-12.59,0-18.89,0-.57.17-.72.73-.71,5.36,0,10.73,0,16.09,0H112v-.61c0-5.23,0-10.47,0-15.7a28.51,28.51,0,0,1,2.71-12.11,21.94,21.94,0,0,1,11.72-11.1,27.75,27.75,0,0,1,11.12-2.11c4.39.07,8.78.27,13.17.42.82,0,1.63.17,2.45.21.45,0,.6.2.6.65,0,2.61,0,5.21,0,7.82,0,3.08,0,6.15,0,9.22,0,.54-.15.7-.69.7-3.33,0-6.67-.07-10,0a23.83,23.83,0,0,0-4.53.52,6.34,6.34,0,0,0-5.11,5.35,20.35,20.35,0,0,0-.37,3.48c0,4.27,0,8.53,0,12.8a4.37,4.37,0,0,0,0,.45h19.16c.81,0,.82,0,.72.76l-1.32,10.06c-.36,2.8-.71,5.61-1,8.41-.13,1.07-.1,1.08-1.18,1.08H133.08v50.7c0,.41,0,.82,0,1.23h34.53a6,6,0,0,1,.68-.22,7.16,7.16,0,0,0,6-6,5.89,5.89,0,0,1,.21-.68V58C174.45,57.75,174.35,57.49,174.3,57.22Z"/></g></svg>