<svg xmlns="http://www.w3.org/2000/svg" viewBox="0 0 214.94 227.99"><defs><style>.cls-1{fill:#f15a29;}</style></defs><title>Artboard 1 copy 28Social Network</title><g id="Layer_1" data-name="Layer 1"><g id="_Group_" data-name="&lt;Group&gt;"><path id="_Compound_Path_" data-name="&lt;Compound Path&gt;" class="cls-1" d="M135.51,192.71H79.43a39.13,39.13,0,0,1-39-39V93.94a39.13,39.13,0,0,1,39-39h56.08a39.13,39.13,0,0,1,39,39v59.75A39.13,39.13,0,0,1,135.51,192.71Zm0-10.31a28.82,28.82,0,0,0,28.7-28.71V93.94a28.82,28.82,0,0,0-28.7-28.71H79.43a28.82,28.82,0,0,0-28.7,28.71v59.75a28.82,28.82,0,0,0,28.7,28.71Z"/><path id="_Compound_Path_2" data-name="&lt;Compound Path&gt;" class="cls-1" d="M144.61,123.28a36.93,36.93,0,1,1-36.93-36.93A36.93,36.93,0,0,1,144.61,123.28ZM107.5,99.13a24.18,24.18,0,1,0,24.18,24.18A24.19,24.19,0,0,0,107.5,99.13Z"/><circle id="_Path_" data-name="&lt;Path&gt;" class="cls-1" cx="145.2" cy="85.78" r="8.74"/></g></g></svg>